<?xml version="1.0" encoding="utf-8"?>
<!-- Generator: Adobe Illustrator 17.0.0, SVG Export Plug-In . SVG Version: 6.00 Build 0)  -->
<!DOCTYPE svg PUBLIC "-//W3C//DTD SVG 1.1//EN" "http://www.w3.org/Graphics/SVG/1.1/DTD/svg11.dtd">
<svg version="1.1" id="Layer_3" xmlns="http://www.w3.org/2000/svg" xmlns:xlink="http://www.w3.org/1999/xlink" x="0px" y="0px"
	 width="920.813px" height="238.586px" viewBox="0 0 920.813 238.586" enable-background="new 0 0 920.813 238.586"
	 xml:space="preserve">
<g>
	<path fill="#FFFFFF" d="M407.619,229.851l-7.865,8.736h-55.248c-1.681,0-3.171-0.286-4.47-0.861
		c-1.298-0.574-2.216-1.414-2.753-2.521c-0.537-1.106-0.582-2.41-0.132-3.914c0.196-0.656,0.59-1.503,1.181-2.542l4.4-7.265h-9.958
		c-2.688,0-4.498-0.577-5.428-1.729c-0.931-1.152-1.161-2.51-0.693-4.074c0.435-1.453,1.239-2.667,2.414-3.642
		c1.173-0.974,2.748-1.954,4.724-2.942l22.187-10.828c3.741-1.832,6.801-3.589,9.181-5.271c2.379-1.681,3.913-3.67,4.601-5.967
		c0.892-2.979,0.498-4.875-1.179-5.681c-1.678-0.807-4.309-1.21-7.894-1.21h-68.483l7.949-8.736h64.197
		c13.081,0,18.173,4.84,15.278,14.52c-1.12,3.746-3.435,7.219-6.939,10.418c-3.506,3.199-7.739,5.975-12.7,8.325l-18.645,8.819
		h7.479c1.82,0,3.129,0.516,3.928,1.547c0.797,1.03,0.95,2.37,0.457,4.02c-0.255,0.852-0.594,1.607-1.015,2.267l-4.103,6.695
		c-0.367,1.225,0.052,1.837,1.257,1.837H407.619z M340.292,185.677l-32.002,52.91h-9.369l31.918-52.91H340.292z"/>
	<path fill="#FFFFFF" d="M489.27,229.851l-8.033,8.736h-75.037c-4.285,0-7.27-1.217-8.949-3.65
		c-1.682-2.434-1.858-5.866-0.534-10.295c0.608-1.941,1.284-3.685,2.026-5.23c0.741-1.543,1.797-3.383,3.163-5.516h9.453
		c-2.782,3.773-4.626,7.082-5.532,9.926c-0.589,1.969-0.613,3.548-0.072,4.736c0.54,1.19,1.749,1.784,3.625,1.784
		c2.186,0,4.434-0.683,6.748-2.051c2.313-1.366,4.443-3.103,6.39-5.208s3.651-4.341,5.115-6.707
		c1.463-2.364,2.526-4.559,3.188-6.582h-35.965l7.193-8.736h33.107c2.968,0,4.889,0.532,5.761,1.599
		c0.871,1.067,0.906,2.94,0.104,5.62c-0.662,2.023-1.836,4.498-3.523,7.424c-1.688,2.927-3.587,5.695-5.698,8.306
		c-2.112,2.611-4.145,4.56-6.097,5.845H489.27z"/>
	<path fill="#FFFFFF" d="M571.003,229.851l-7.909,8.736h-96.84l37.319-61.811h9.373l-22.245,36.709
		c1.276-1.176,2.721-2.399,4.334-3.671s3.317-2.495,5.111-3.671c1.795-1.176,3.616-2.229,5.464-3.158
		c1.847-0.93,3.579-1.613,5.194-2.051c1.941-0.492,4.116-0.738,6.526-0.738c2.941,0,4.851,0.574,5.726,1.723s1.043,2.625,0.504,4.43
		c-0.303,1.012-0.843,2.16-1.619,3.445l-9.303,15.504c-1.089,1.859-2.342,3.377-3.758,4.553H571.003z M512.137,210.531
		c0.196-0.655,0.238-1.1,0.125-1.332c-0.111-0.231-0.463-0.349-1.051-0.349c-1.206,0-3.117,0.793-5.734,2.379
		c-2.618,1.586-5.521,3.588-8.711,6.009c-3.189,2.419-6.121,4.771-8.794,7.055c-2.672,2.283-4.712,4.136-6.117,5.558h12.146
		c2.298,0,4.178-0.383,5.64-1.148s2.809-2.175,4.038-4.226L512.137,210.531z"/>
	<path fill="#FFFFFF" d="M652.317,229.851l-8.033,8.736h-75.037c-4.285,0-7.269-1.217-8.949-3.65s-1.858-5.866-0.534-10.295
		c0.608-1.941,1.284-3.685,2.026-5.23c0.741-1.543,1.796-3.383,3.163-5.516h9.453c-2.782,3.773-4.625,7.082-5.532,9.926
		c-0.589,1.969-0.613,3.548-0.072,4.736c0.54,1.19,1.749,1.784,3.625,1.784c2.186,0,4.435-0.683,6.749-2.051
		c2.313-1.366,4.442-3.103,6.389-5.208c1.945-2.105,3.651-4.341,5.115-6.707c1.463-2.364,2.525-4.559,3.188-6.582h-35.965
		l7.193-8.736h33.107c2.968,0,4.889,0.532,5.76,1.599c0.872,1.067,0.907,2.94,0.105,5.62c-0.662,2.023-1.836,4.498-3.523,7.424
		c-1.688,2.927-3.587,5.695-5.698,8.306c-2.112,2.611-4.144,4.56-6.097,5.845H652.317z"/>
	<path fill="#FFFFFF" d="M717.036,229.851l-7.946,8.736h-56.688c-4.508,0-7.585-0.943-9.232-2.83s-2.028-4.307-1.146-7.26
		c0.377-1.257,1.018-2.652,1.923-4.184l8.92-14.52h-9.574l5.386-8.736h9.447l9.105-15.135l10.759-2.42l-10.583,17.555h9.405
		l-5.385,8.736h-9.28l-9.635,15.791c-0.527,0.82-0.884,1.545-1.072,2.174c-0.204,0.684-0.093,1.203,0.332,1.558
		c0.426,0.356,1.311,0.534,2.654,0.534H717.036z"/>
	<path fill="#FFFFFF" d="M768.479,229.851l-7.742,8.736h-55.912c-2.775,0-4.745-0.608-5.907-1.824
		c-1.164-1.217-1.406-2.96-0.728-5.229c0.344-1.148,0.977-2.516,1.899-4.101l15.877-26.376h9.417l-16.16,26.619
		c-0.262,0.876-0.31,1.456-0.144,1.743s0.6,0.431,1.301,0.431H768.479z M740.129,176.776l-8.319,13.616h-9.375l8.319-13.616H740.129
		z"/>
	<path fill="#FFFFFF" d="M839.92,229.851l-7.865,8.736h-62.392c-2.829,0-5.318-0.458-7.466-1.375
		c-2.15-0.914-3.659-2.281-4.529-4.101c-0.871-1.818-0.918-4.026-0.141-6.624c0.475-1.586,1.234-3.24,2.282-4.963l12.383-20.467
		h23.653c2.129,0,3.617,0.41,4.464,1.23c0.848,0.819,1.042,1.996,0.584,3.527c-0.196,0.656-0.591,1.504-1.181,2.543l-4.296,7.055
		l-10.691,2.174l4.726-7.793h-13.066l-7.666,12.427c-0.546,0.794-0.965,1.683-1.26,2.667c-0.467,1.559-0.284,2.776,0.547,3.65
		c0.83,0.875,2.254,1.313,4.271,1.313H839.92z"/>
	<path fill="#FFFFFF" d="M920.855,229.851l-7.865,8.736h-74.407l6.395-8.736h2.143c2.717,0,5.005-0.369,6.864-1.107
		s3.175-2.351,3.947-4.84c0.475-1.586,0.413-3.767-0.186-6.543c-0.598-2.774-0.814-4.859-0.649-6.254l-22.753,22.271
		c-2.204,2.216-4.065,3.638-5.583,4.267c-1.519,0.629-3.524,0.943-6.017,0.943h-4.748l43.493-42.164h11.05
		c-1.594,1.394-2.982,2.782-4.165,4.162c-1.185,1.382-1.977,2.742-2.377,4.081c-0.287,0.958-0.345,2.018-0.174,3.18
		s0.503,2.837,0.997,5.024c0.494,2.188,0.801,4.04,0.922,5.558c0.12,1.518-0.028,2.974-0.445,4.368
		c-0.467,1.559-1.006,2.844-1.615,3.855c-0.611,1.013-1.519,2.078-2.722,3.199H920.855z"/>
</g>
<g>
	<path fill="#FFFFFF" d="M16.569,0v126.914h65.747l-5.753,14.69H0V0H16.569z M20.93,122.663h63.159l5.833-14.865H37.149V0H20.93
		V122.663z"/>
	<g>
		<polygon fill="#FFFFFF" points="161.544,18.941 145.676,18.941 96.665,141.604 113.941,141.604 124.124,115.052 126.903,107.798
			152.985,39.762 177.976,107.798 183.434,122.663 200.79,122.663 		"/>
		<polygon fill="#FFFFFF" points="176.72,0 131.024,0 75.563,141.604 92.08,141.604 142.097,14.871 164.867,14.871 207.331,126.735
			184.932,126.735 190.39,141.604 231.659,141.604 		"/>
		<path fill-rule="evenodd" clip-rule="evenodd" fill="#FFFFFF" d="M160.795,107.745c0,5.057,0,10.107,0,15.158
			c-5.16,0-10.318,0-15.478,0c0-5.051,0-10.102,0-15.158C150.477,107.745,155.635,107.745,160.795,107.745z"/>
	</g>
	<path fill="#FFFFFF" d="M343.377,14.692h-81.691c-14.027,1.301-21.039,10.327-21.039,27.082c0,12.627,4.272,21.478,12.814,26.549
		c3.437,2.01,7.65,3.249,12.632,3.718h37.549c4.865,0.354,9.017,1.471,12.457,3.352c8.188,4.588,12.279,12.524,12.279,23.813
		c0.118,14.467-7.607,22.225-23.18,23.282h-82.829l-5.721-14.336l84.448-0.354c7.372-0.712,11.057-4.075,11.057-10.093
		c0-4.245-3.566-8.021-10.701-11.326h-36.02c-8.201-0.589-15.156-2.417-20.864-5.487c-14.029-7.436-21.041-20.414-21.041-38.941
		c0-17.815,6.389-30.146,19.17-36.993c5.253-2.83,11.584-4.483,18.989-4.957h91.656L343.377,14.692z M260.617,18.941
		c-10.341,2.824-15.513,10.758-15.513,23.809c0,10.702,4.1,18.05,12.303,22.046c3.447,1.764,7.548,2.763,12.304,3h36.021
		c5.351,0.472,9.987,1.775,13.908,3.902c9.152,5.209,13.669,14.385,13.553,27.519c-0.12,11.364-4.281,19.353-12.483,23.965
		c-3.45,1.896-7.551,3.079-12.306,3.554h-84.354l5.9,14.868h75.603c8.914-0.117,16.522-1.594,22.822-4.427
		c15.338-6.724,23.004-19.526,23.004-38.408c0-18.879-6.837-32.215-20.504-40.002c-5.707-3.188-12.545-5.133-20.508-5.842h-41.55
		c-4.875-1.049-7.31-4.62-7.31-10.696c0-5.493,2.614-8.183,7.846-8.065h61.523l9.983-15.223H260.617z"/>
	<g>
		<polygon fill="#FFFFFF" points="436.802,0 391.107,0 335.647,141.604 352.163,141.604 402.178,14.871 424.952,14.871
			467.416,126.735 445.012,126.735 450.476,141.604 491.744,141.604 		"/>
		<polygon fill="#FFFFFF" points="421.627,18.941 405.763,18.941 356.75,141.604 374.027,141.604 384.21,115.052 386.982,107.798
			413.07,39.762 438.058,107.798 443.52,122.663 460.871,122.663 		"/>
		<path fill-rule="evenodd" clip-rule="evenodd" fill="#FFFFFF" d="M420.885,107.505c0,5.054,0,10.104,0,15.158
			c-5.164,0-10.32,0-15.48,0c0-5.054,0-10.104,0-15.158C410.564,107.505,415.721,107.505,420.885,107.505z"/>
	</g>
</g>
<path fill="#FF00FF" d="M920.813,229.959"/>
</svg>
